Coordinates
version=1
nRows=21
nColumns=22
inDegrees=yes

Units are S.I. units (second, meters, Newtons, ...)
If the header above contains a line with 'inDegrees', this indicates whether rotational values are in degrees (yes) or radians (no).

endheader
time	pelvis_tilt	pelvis_list	pelvis_rotation	pelvis_tx	pelvis_ty	pelvis_tz	hip_flexion_r	hip_adduction_r	hip_rotation_r	knee_angle_r	ankle_angle_r	subtalar_angle_r	hip_flexion_l	hip_adduction_l	hip_rotation_l	knee_angle_l	ankle_angle_l	subtalar_angle_l	lumbar_extension	lumbar_bending	lumbar_rotation
      3.95000000	      5.92976671	      3.56294914	    152.74020861	      0.53052838	      0.97567395	     -0.72235377	    -10.40453662	      4.14187654	    -10.31021789	    -13.56903852	     17.03098433	     13.52552449	     30.79936808	     -9.07944244	    -29.79016801	    -13.36071572	      8.25640103	     -4.69902905	     -2.98452790	     -2.29255913	      3.96258652
      3.96000000	      5.80444738	      3.47721999	    152.75533354	      0.51976207	      0.97506982	     -0.72559133	    -10.85165147	      3.76516526	    -10.07705201	    -14.15492356	     16.56523977	     14.02485068	     30.67360348	     -9.24079349	    -30.26674547	    -14.19216654	      7.79847992	     -5.13188510	     -2.81481096	     -2.60225958	      4.13996925
      3.97000000	      5.65369708	      3.34017967	    152.79140481	      0.50863168	      0.97468954	     -0.72869050	    -11.24755978	      3.30489479	     -9.85059166	    -14.84311208	     15.96258842	     14.67565939	     30.49314319	     -9.31953043	    -30.85746972	    -15.10888895	      7.15651129	     -5.65946010	     -2.61557137	     -2.95754413	      4.26535491
      3.98000000	      5.48991011	      3.15667877	    152.84001233	      0.49719770	      0.97454337	     -0.73166675	    -11.56544825	      2.77407285	     -9.62371893	    -15.65427806	     15.20621743	     15.43055291	     30.27425748	     -9.32989475	    -31.53466539	    -16.08300879	      6.36203199	     -6.25137298	     -2.38235022	     -3.35260975	      4.36670032
      3.99000000	      5.31637588	      2.93043367	    152.92087727	      0.48547328	      0.97464414	     -0.73444091	    -11.79320454	      2.17918913	     -9.41665933	    -16.59732277	     14.27755759	     16.32252425	     30.02300742	     -9.25010459	    -32.18987789	    -17.06602574	      5.47378891	     -6.92779196	     -2.12286000	     -3.77298891	      4.43416379
      4.00000000	      5.14106402	      2.67345910	    153.05280638	      0.47350048	      0.97499976	     -0.73698911	    -11.92146488	      1.54365323	     -9.22924909	    -17.67577897	     13.14686793	     17.37062542	     29.74923577	     -9.07309386	    -32.71331009	    -18.01729304	      4.56916138	     -7.67431556	     -1.84311699	     -4.20339067	      4.42912692
      4.01000000	      4.97521963	      2.40431116	    153.21545864	      0.46138647	      0.97560348	     -0.73929685	    -11.91634655	      0.88461440	     -9.05648008	    -18.93088596	     11.81350261	     18.48449917	     29.46187544	     -8.81655994	    -33.01900751	    -18.91067279	      3.70462972	     -8.39458356	     -1.55449199	     -4.61880589	      4.41999922
      4.02000000	      4.82358989	      2.13347976	    153.41783778	      0.44918970	      0.97643442	     -0.74136740	    -11.77591363	      0.22092607	     -8.90115308	    -20.35428259	     10.26830727	     19.61574126	     29.17096437	     -8.48341564	    -33.06589342	    -19.73594379	      2.93200131	     -9.06660269	     -1.26262275	     -5.00984046	      4.38862195
      4.03000000	      4.69286821	      1.87338565	    153.66571945	      0.43699011	      0.97745737	     -0.74315699	    -11.48882210	     -0.43013944	     -8.75907924	    -21.95182057	      8.53056807	     20.67075726	     28.88235046	     -8.07493460	    -32.82128380	    -20.47355373	      2.24393390	     -9.67011501	     -0.97884883	     -5.35791706	      4.34787627
      4.04000000	      4.56760701	      1.65954728	    153.95620704	      0.42482392	      0.97865678	     -0.74469978	    -11.09649557	     -1.03795761	     -8.62035925	    -23.69579804	      6.58521809	     21.64067725	     28.57380050	     -7.63500665	    -32.36227626	    -21.15057762	      1.74451041	    -10.27811455	     -0.73985815	     -5.63686403	      4.28742040
      4.05000000	      4.44885496	      1.48456672	    154.26883595	      0.41276123	      0.97998232	     -0.74602209	    -10.58429695	     -1.61227679	     -8.47425036	    -25.59604330	      4.49642022	     22.44290018	     28.23916089	     -7.17331017	    -31.75935436	    -21.75645877	      1.41917702	    -10.88690881	     -0.54125971	     -5.85557840	      4.23714352
      4.06000000	      4.33183196	      1.34910720	    154.59197298	      0.40084942	      0.98138614	     -0.74715615	     -9.95812799	     -2.15099947	     -8.29859213	    -27.64836911	      2.31135373	     23.06628771	     27.86675695	     -6.70503443	    -31.09061351	    -22.29148867	      1.29612133	    -11.53715545	     -0.39215275	     -6.01817638	      4.20118202
      4.07000000	      4.21147332	      1.24705522	    154.93678819	      0.38913786	      0.98282624	     -0.74810686	     -9.22151728	     -2.66293768	     -8.15174317	    -29.85114140	      0.07963963	     23.44033513	     27.46007308	     -6.23238726	    -30.39309777	    -22.76569338	      1.26860612	    -12.08266372	     -0.30053754	     -6.14209253	      4.17263888
      4.08000000	      4.09273912	      1.16687798	    155.27679353	      0.37763026	      0.98424148	     -0.74889979	     -8.36822802	     -3.15662820	     -7.98658406	    -32.19666867	     -2.11965545	     23.62714308	     27.00895170	     -5.75602876	    -29.71759203	    -23.15679816	      1.42327227	    -12.69096071	     -0.25111345	     -6.22841593	      4.15599197
      4.09000000	      3.95858093	      1.09866125	    155.61681012	      0.36634360	      0.98563459	     -0.74954613	     -7.41819481	     -3.65445621	     -7.85922622	    -34.66660810	     -4.23430244	     23.67132810	     26.50290220	     -5.26983099	    -29.10018512	    -23.46949112	      1.65176490	    -13.17466345	     -0.25865639	     -6.29908822	      4.13780811
      4.10000000	      3.81517780	      1.02763012	    155.94820506	      0.35529273	      0.98696241	     -0.75010150	     -6.37165413	     -4.15545524	     -7.73203074	    -37.23077942	     -6.18218892	     23.60573722	     25.95668329	     -4.77002860	    -28.53135789	    -23.71597036	      1.98658380	    -13.64852188	     -0.30663140	     -6.37614204	      4.12219481
      4.11000000	      3.66277746	      0.95035546	    156.26647776	      0.34447507	      0.98822487	     -0.75056942	     -5.23795807	     -4.65460031	     -7.58694528	    -39.85333426	     -7.89403928	     23.45957185	     25.36546149	     -4.25328514	    -28.01631479	    -23.88085655	      2.40515002	    -14.10401629	     -0.39138683	     -6.45591477	      4.08435137
      4.12000000	      3.49932813	      0.87248599	    156.58253640	      0.33388562	      0.98944250	     -0.75094723	     -4.03602077	     -5.14933900	     -7.45850650	    -42.48731856	     -9.31824729	     23.37006045	     24.73491557	     -3.73254638	    -27.57463292	    -23.98265563	      2.83396554	    -14.42257192	     -0.51635023	     -6.53663377	      4.03819868
      4.13000000	      3.34431472	      0.79003716	    156.89259149	      0.32353801	      0.99059818	     -0.75127743	     -2.76183029	     -5.60621961	     -7.28189471	    -45.07881750	    -10.36767211	     23.20900384	     24.08594173	     -3.21129411	    -27.17041354	    -24.01874886	      3.30189495	    -14.71617535	     -0.65249546	     -6.61695037	      3.95350820
      4.14000000	      3.20105075	      0.71928448	    157.21331041	      0.31341875	      0.99171739	     -0.75153975	     -1.43854531	     -6.00303680	     -7.07698073	    -47.57179758	    -11.00526034	     22.99704860	     23.42599713	     -2.70697958	    -26.79654852	    -24.00573367	      3.77181081	    -14.92902880	     -0.80268212	     -6.67813415	      3.83312023
      4.15000000	      3.07616588	      0.66769500	    157.55453875	      0.30353348	      0.99281022	     -0.75172268	     -0.07755635	     -6.32444364	     -6.84990369	    -49.92304472	    -11.19347427	     22.67781626	     22.76729042	     -2.22807071	    -26.42740127	    -23.95395778	      4.24201951	    -15.07631689	     -0.96008191	     -6.71035784	      3.67076742
